<?xml version="1.0" encoding="utf-8"?>
<!DOCTYPE svg PUBLIC "-//W3C//DTD SVG 20010904//EN" "http://www.w3.org/TR/2001/REC-SVG-20010904/DTD/svg10.dtd">
<svg version="1.0" xmlns="http://www.w3.org/2000/svg" width="2000pt" height="2000pt" viewBox="0 0 2000 2000" style="" preserveAspectRatio="xMidYMid meet">
<g fill="#007CFEFE" stroke="#007CFEFE">
<path d="M 962.696 673.250 C 962.377 676.138 961.341 686.940 960.392 697.256 L 958.667 716.012 954.584 717.015 C 925.384 724.187 901.805 733.628 879.255 747.175 L 871.010 752.128 852.255 736.571 L 833.500 721.013 800.287 754.257 L 767.074 787.500 782.580 806.232 L 798.087 824.964 792.427 834.581 C 780.553 854.756 771.548 876.355 765.584 898.964 C 763.655 906.274 761.948 912.367 761.789 912.502 C 761.630 912.638 753.175 913.499 743.000 914.417 C 732.825 915.335 722.138 916.354 719.250 916.681 L 714.000 917.275 714.000 964.026 L 714.000 1010.777 717.250 1011.326 C 719.038 1011.628 729.500 1012.647 740.500 1013.590 C 751.500 1014.532 760.994 1015.798 761.597 1016.402 C 762.200 1017.006 763.259 1020.200 763.950 1023.500 C 767.935 1042.527 781.228 1075.035 793.067 1094.706 L 798.116 1103.096 790.616 1112.298 C 786.492 1117.359 779.520 1125.775 775.125 1131.000 L 767.133 1140.500 800.374 1173.806 L 833.615 1207.111 852.306 1191.648 L 870.996 1176.184 883.474 1183.466 C 903.144 1194.944 927.097 1204.544 949.607 1209.970 L 958.715 1212.165 959.890 1225.333 C 960.537 1232.575 961.567 1243.563 962.180 1249.750 L 963.293 1261.000 1010.033 1261.000 L 1056.773 1261.000 1057.357 1256.750 C 1057.678 1254.413 1058.655 1244.400 1059.526 1234.500 C 1061.532 1211.727 1061.434 1212.161 1064.765 1211.434 C 1089.856 1205.960 1118.428 1194.648 1139.855 1181.705 L 1149.211 1176.054 1167.855 1191.520 L 1186.500 1206.987 1219.761 1173.731 L 1253.022 1140.475 1237.522 1121.798 L 1222.023 1103.122 1226.912 1095.238 C 1239.764 1074.516 1252.179 1043.423 1257.446 1018.765 C 1258.163 1015.409 1257.881 1015.473 1280.500 1013.512 C 1290.400 1012.653 1300.413 1011.686 1302.750 1011.362 L 1307.000 1010.773 1307.000 964.033 L 1307.000 917.293 1295.750 916.178 C 1289.563 915.565 1278.596 914.521 1271.381 913.859 L 1258.261 912.656 1255.537 901.578 C 1250.172 879.756 1239.955 854.947 1228.233 835.275 L 1222.140 825.050 1237.626 806.332 L 1253.111 787.615 1219.806 754.374 L 1186.500 721.133 1177.000 729.125 C 1171.775 733.520 1163.340 740.507 1158.255 744.651 L 1149.010 752.186 1142.520 748.087 C 1133.099 742.137 1112.027 731.808 1100.673 727.574 C 1089.517 723.414 1067.816 717.000 1064.899 717.000 C 1061.924 717.000 1061.243 714.035 1059.504 693.500 C 1058.618 683.050 1057.643 673.038 1057.336 671.250 L 1056.777 668.000 1010.026 668.000 L 963.275 668.000 962.696 673.250 M 1043.000 814.318 C 1074.076 821.678 1095.956 833.807 1118.066 855.928 C 1131.461 869.328 1139.816 880.700 1147.476 895.953 C 1168.707 938.233 1168.694 989.835 1147.442 1032.223 C 1132.133 1062.756 1108.756 1086.133 1078.223 1101.442 C 1054.110 1113.532 1025.292 1119.142 998.514 1116.960 C 960.525 1113.863 929.111 1099.263 901.934 1072.072 C 879.173 1049.301 865.768 1024.253 859.329 992.464 C 856.552 978.756 856.806 947.138 859.804 933.312 C 866.371 903.021 880.171 877.702 901.951 855.983 C 925.869 832.132 953.635 817.873 986.599 812.514 C 1000.753 810.213 1029.558 811.135 1043.000 814.318 "/></g>
<g fill="#94BEFEFE" stroke="#94BEFEFE">
<path d="M 211.000 530.032 C 211.000 659.578 211.175 676.482 212.548 679.768 C 214.612 684.710 217.659 687.876 222.500 690.110 C 226.347 691.886 234.368 691.957 432.782 691.978 C 616.742 691.998 639.465 691.833 642.768 690.452 C 647.710 688.388 650.876 685.341 653.110 680.500 C 654.878 676.670 654.957 670.300 654.978 530.250 L 655.000 384.000 433.000 384.000 L 211.000 384.000 211.000 530.032 M 441.162 443.409 C 468.905 448.736 492.696 468.526 503.533 495.292 C 505.361 499.807 507.156 505.148 507.523 507.161 L 508.189 510.822 512.876 508.468 C 533.903 497.907 566.022 510.327 577.312 533.384 C 582.187 543.341 584.206 553.070 584.287 567.000 C 584.383 583.447 581.034 595.985 573.801 606.250 L 571.864 609.000 510.932 609.000 L 450.000 609.000 450.000 587.000 L 450.000 565.000 458.500 565.000 C 465.731 565.000 467.000 564.754 467.000 563.351 C 467.000 562.443 462.334 556.931 456.631 551.101 C 450.927 545.270 442.540 536.563 437.992 531.750 C 433.444 526.938 429.172 523.000 428.500 523.000 C 426.703 523.000 390.000 561.510 390.000 563.395 C 390.000 564.742 391.365 565.000 398.500 565.000 L 407.000 565.000 407.000 586.508 L 407.000 608.016 349.750 607.758 L 292.500 607.500 289.338 602.768 C 284.222 595.114 281.558 585.877 281.575 575.857 C 281.589 567.913 281.890 566.606 285.310 559.687 C 294.407 541.280 310.905 531.924 331.880 533.277 L 340.500 533.832 340.714 524.166 C 341.287 498.311 354.812 472.534 375.563 457.747 C 385.579 450.610 398.949 445.028 410.831 443.023 C 418.546 441.721 433.353 441.910 441.162 443.409 "/></g>
<g fill="#94BEFEFE" stroke="#94BEFEFE">
<path d="M 1416.237 913.750 L 1416.500 1060.500 1418.989 1064.848 C 1420.447 1067.395 1423.191 1070.200 1425.613 1071.619 L 1429.746 1074.041 1637.994 1074.090 L 1846.241 1074.139 1850.793 1071.319 C 1853.691 1069.524 1856.190 1066.899 1857.672 1064.093 L 1860.000 1059.685 1860.000 913.343 L 1860.000 767.000 1637.987 767.000 L 1415.974 767.000 1416.237 913.750 M 1744.000 1014.000 L 1744.000 1021.000 1630.000 1021.000 L 1516.000 1021.000 1516.000 1014.000 L 1516.000 1007.000 1630.000 1007.000 L 1744.000 1007.000 1744.000 1014.000 M 1744.000 920.000 L 1744.000 927.000 1630.000 927.000 L 1516.000 927.000 1516.000 920.000 L 1516.000 913.000 1630.000 913.000 L 1744.000 913.000 1744.000 920.000 M 1744.000 888.000 L 1744.000 895.000 1630.000 895.000 L 1516.000 895.000 1516.000 888.000 L 1516.000 881.000 1630.000 881.000 L 1744.000 881.000 1744.000 888.000 M 1744.000 827.000 L 1744.000 834.000 1630.000 834.000 L 1516.000 834.000 1516.000 827.000 L 1516.000 820.000 1630.000 820.000 L 1744.000 820.000 1744.000 827.000 M 1683.000 856.000 L 1683.000 863.000 1601.000 863.000 L 1519.000 863.000 1519.000 856.000 L 1519.000 849.000 1601.000 849.000 L 1683.000 849.000 1683.000 856.000 M 1679.168 947.998 L 1678.836 955.000 1597.418 955.000 L 1516.000 955.000 1516.000 948.000 L 1516.000 941.000 1597.750 940.998 L 1679.500 940.995 1679.168 947.998 M 1809.000 856.500 L 1809.000 864.000 1754.500 864.000 L 1700.000 864.000 1700.000 856.500 L 1700.000 849.000 1754.500 849.000 L 1809.000 849.000 1809.000 856.500 M 1806.000 948.000 L 1806.000 955.000 1751.000 955.000 L 1696.000 955.000 1696.000 948.667 C 1696.000 945.183 1696.300 942.033 1696.667 941.667 C 1697.033 941.300 1721.783 941.000 1751.667 941.000 L 1806.000 941.000 1806.000 948.000 M 1598.000 976.500 L 1598.000 984.000 1557.000 984.000 L 1516.000 984.000 1516.000 976.500 L 1516.000 969.000 1557.000 969.000 L 1598.000 969.000 1598.000 976.500 "/></g>
<g fill="#B2D0FEFE" stroke="#B2D0FEFE">
<path d="M 1579.000 1430.500 L 1579.000 1639.000 1727.500 1639.000 L 1876.000 1639.000 1876.000 1430.500 L 1876.000 1222.000 1727.500 1222.000 L 1579.000 1222.000 1579.000 1430.500 M 1861.000 1527.500 L 1861.000 1554.000 1727.000 1554.000 L 1593.000 1554.000 1593.000 1527.500 L 1593.000 1501.000 1727.000 1501.000 L 1861.000 1501.000 1861.000 1527.500 M 1861.000 1462.500 L 1861.000 1489.000 1727.000 1489.000 L 1593.000 1489.000 1593.000 1462.500 L 1593.000 1436.000 1727.000 1436.000 L 1861.000 1436.000 1861.000 1462.500 M 1861.000 1333.500 L 1861.000 1360.000 1727.000 1360.000 L 1593.000 1360.000 1593.000 1333.500 L 1593.000 1307.000 1727.000 1307.000 L 1861.000 1307.000 1861.000 1333.500 M 1861.000 1268.500 L 1861.000 1295.000 1727.000 1295.000 L 1593.000 1295.000 1593.000 1268.500 L 1593.000 1242.000 1727.000 1242.000 L 1861.000 1242.000 1861.000 1268.500 M 1861.000 1592.000 L 1861.000 1618.000 1727.000 1618.000 L 1593.000 1618.000 1593.000 1592.000 L 1593.000 1566.000 1727.000 1566.000 L 1861.000 1566.000 1861.000 1592.000 M 1861.000 1398.000 L 1861.000 1424.000 1727.000 1424.000 L 1593.000 1424.000 1593.000 1398.000 L 1593.000 1372.000 1727.000 1372.000 L 1861.000 1372.000 1861.000 1398.000 "/></g>
<g fill="#007CFEFE" stroke="#007CFEFE">
<path d="M 656.000 549.500 L 656.000 583.000 1157.500 583.000 L 1659.000 583.000 1659.000 549.500 L 1659.000 516.000 1157.500 516.000 L 656.000 516.000 656.000 549.500 "/></g>
<g fill="#1A2E34FE" stroke="#1A2E34FE">
<path d="M 712.845 1616.000 C 714.685 1617.728 716.035 1619.241 715.845 1619.361 C 715.655 1619.482 712.262 1622.150 708.303 1625.290 C 704.345 1628.431 700.741 1631.000 700.293 1631.000 C 699.846 1631.000 697.684 1635.323 695.490 1640.608 C 693.295 1645.892 690.477 1651.241 689.226 1652.495 C 685.902 1655.828 679.712 1656.998 665.307 1657.015 C 657.911 1657.024 653.065 1657.389 653.837 1657.878 C 654.573 1658.345 655.023 1659.737 654.837 1660.972 C 654.357 1664.171 584.856 1708.432 581.597 1707.614 C 577.992 1706.709 570.000 1702.965 570.000 1702.181 C 570.000 1701.781 571.578 1700.605 573.506 1699.567 C 575.434 1698.528 576.848 1697.514 576.647 1697.314 C 576.446 1697.113 572.281 1696.294 567.391 1695.494 C 556.674 1693.740 552.553 1692.592 549.283 1690.450 L 546.811 1688.830 548.982 1686.519 C 553.806 1681.384 586.360 1671.703 635.425 1660.813 L 650.350 1657.500 576.770 1657.000 C 536.301 1656.725 503.358 1656.771 503.563 1657.102 C 503.973 1657.765 496.877 1660.142 493.110 1660.602 C 491.796 1660.762 489.996 1661.210 489.110 1661.597 C 488.225 1661.984 486.600 1662.387 485.500 1662.493 C 484.400 1662.598 482.381 1663.045 481.013 1663.485 C 475.773 1665.171 472.133 1664.753 461.000 1661.185 L 449.500 1657.500 464.000 1656.931 L 478.500 1656.362 461.500 1656.287 C 452.150 1656.246 443.825 1655.959 443.000 1655.649 C 439.177 1654.213 428.294 1650.759 426.500 1650.413 C 425.400 1650.200 423.375 1649.607 422.000 1649.095 C 419.792 1648.271 415.413 1647.154 413.254 1646.862 C 412.840 1646.806 411.375 1646.324 410.000 1645.791 C 408.625 1645.258 406.713 1644.637 405.750 1644.411 C 404.788 1644.185 402.988 1643.735 401.750 1643.410 C 400.513 1643.086 398.825 1642.699 398.000 1642.549 C 397.175 1642.400 395.825 1642.003 395.000 1641.668 C 394.175 1641.332 392.375 1640.843 391.000 1640.580 C 387.090 1639.833 384.524 1639.238 380.875 1638.234 C 379.019 1637.723 376.714 1637.421 375.754 1637.563 C 374.794 1637.705 373.750 1637.405 373.435 1636.895 C 373.120 1636.385 372.452 1636.221 371.952 1636.530 C 371.451 1636.839 370.182 1636.632 369.131 1636.070 C 368.080 1635.507 364.808 1634.828 361.860 1634.560 C 358.912 1634.292 355.375 1633.778 354.000 1633.418 C 350.575 1632.521 316.824 1631.985 315.537 1632.808 C 314.966 1633.172 313.713 1633.533 312.750 1633.610 C 311.788 1633.687 310.888 1633.841 310.750 1633.952 C 310.365 1634.262 306.812 1635.061 303.674 1635.544 C 299.022 1636.259 287.572 1641.579 282.243 1645.500 C 280.670 1646.658 273.065 1654.194 271.306 1656.340 C 270.335 1657.524 267.150 1663.964 266.528 1666.000 C 264.665 1672.101 263.839 1680.084 264.252 1687.996 C 264.739 1697.326 268.164 1713.288 270.208 1715.750 C 270.778 1716.438 270.990 1717.000 270.679 1717.000 C 269.698 1717.000 275.871 1731.081 281.579 1741.868 C 288.247 1754.468 291.285 1758.951 300.247 1769.416 C 317.031 1789.015 332.779 1798.540 357.397 1803.978 C 368.497 1806.430 394.229 1810.406 397.500 1810.175 C 402.240 1809.839 408.466 1807.380 411.005 1804.841 C 413.709 1802.137 413.993 1801.246 413.924 1795.673 C 413.791 1784.888 412.768 1783.406 402.469 1779.076 C 392.265 1774.785 378.217 1767.826 366.500 1761.256 C 349.180 1751.546 335.931 1743.736 336.245 1743.422 C 336.426 1743.241 352.083 1747.967 371.037 1753.925 L 405.500 1764.758 438.500 1769.966 C 456.650 1772.831 471.612 1775.285 471.750 1775.420 C 472.044 1775.710 440.325 1789.305 434.500 1791.386 C 432.300 1792.172 429.074 1793.547 427.330 1794.441 L 424.160 1796.067 426.080 1802.780 C 427.136 1806.473 428.000 1809.595 428.000 1809.718 C 428.000 1809.841 422.038 1810.082 414.750 1810.253 L 401.500 1810.563 415.211 1810.782 L 428.923 1811.000 430.067 1815.250 C 430.810 1818.010 432.608 1820.791 435.197 1823.181 L 439.184 1826.862 438.581 1834.181 C 438.004 1841.198 438.361 1842.882 447.258 1875.000 C 457.624 1912.425 456.557 1910.557 464.500 1905.190 C 470.199 1901.340 473.668 1894.035 474.447 1884.242 C 475.143 1875.507 476.865 1861.626 477.670 1858.276 C 478.093 1856.514 477.457 1855.612 474.603 1853.928 C 472.623 1852.760 471.237 1851.425 471.524 1850.962 C 472.072 1850.074 477.891 1851.729 478.152 1852.848 C 478.236 1853.207 478.360 1853.050 478.429 1852.500 C 478.497 1851.950 478.858 1851.013 479.231 1850.419 C 479.629 1849.785 478.481 1848.777 476.455 1847.982 C 474.555 1847.237 473.000 1846.036 473.000 1845.313 C 473.000 1843.550 475.063 1843.655 477.777 1845.557 C 479.856 1847.012 480.000 1846.981 480.000 1845.082 C 480.000 1843.837 478.839 1842.451 477.000 1841.500 C 473.342 1839.608 473.031 1837.582 476.500 1838.245 C 478.704 1838.666 479.000 1838.377 479.000 1835.812 C 479.000 1829.809 483.856 1824.185 487.925 1825.476 C 490.431 1826.271 497.430 1818.288 498.735 1813.145 C 500.690 1805.443 495.911 1801.368 485.979 1802.268 C 479.959 1802.814 479.832 1802.773 477.888 1799.661 C 475.797 1796.313 475.818 1794.998 478.149 1783.218 L 479.391 1776.936 483.946 1777.618 C 486.451 1777.993 501.775 1780.427 518.000 1783.026 L 547.500 1787.751 543.500 1789.488 C 541.300 1790.443 539.275 1791.512 539.000 1791.862 C 538.725 1792.213 537.825 1792.648 537.000 1792.829 C 534.409 1793.397 518.914 1800.247 519.314 1800.647 C 519.524 1800.857 528.426 1799.202 539.098 1796.969 C 572.093 1790.065 567.940 1790.315 590.000 1793.909 C 600.725 1795.657 611.075 1797.304 613.000 1797.570 C 614.925 1797.836 626.339 1799.617 638.364 1801.527 C 663.194 1805.471 664.000 1805.535 664.000 1803.550 C 664.000 1800.931 676.203 1765.518 677.365 1764.765 C 678.204 1764.222 678.197 1764.027 677.341 1764.015 C 676.553 1764.005 676.833 1761.996 678.215 1757.750 L 680.248 1751.500 691.222 1745.558 C 746.578 1715.584 773.374 1681.200 768.062 1646.961 C 766.685 1638.089 765.007 1634.359 760.184 1629.456 C 753.085 1622.239 733.528 1615.169 716.000 1613.483 L 709.500 1612.858 712.845 1616.000 "/></g>
<g fill="#BCC2C4FE" stroke="#BCC2C4FE">
<path d="M 1195.377 1450.801 C 1195.642 1451.230 1180.253 1452.833 1161.179 1454.364 C 1142.106 1455.895 1124.925 1457.306 1123.000 1457.499 C 1119.526 1457.848 1109.557 1458.671 1099.000 1459.481 C 1095.975 1459.713 1087.691 1460.413 1080.592 1461.038 C 1073.493 1461.662 1066.646 1461.974 1065.377 1461.732 C 1064.108 1461.489 1062.942 1461.615 1062.785 1462.011 C 1062.628 1462.407 1058.225 1463.020 1053.000 1463.373 C 1047.775 1463.726 1033.600 1464.853 1021.500 1465.877 C 1009.400 1466.901 998.150 1467.769 996.500 1467.804 C 994.850 1467.840 991.475 1468.094 989.000 1468.369 C 985.039 1468.810 946.908 1472.074 929.000 1473.507 C 925.425 1473.792 917.185 1474.518 910.689 1475.118 C 904.193 1475.718 897.780 1476.000 896.439 1475.744 C 895.097 1475.487 894.000 1475.665 894.000 1476.139 C 894.000 1476.612 891.327 1477.000 888.059 1477.000 C 884.791 1477.000 881.897 1477.358 881.626 1477.796 C 881.180 1478.518 878.301 1495.130 864.431 1577.000 C 861.962 1591.575 859.694 1604.738 859.392 1606.250 L 858.841 1609.000 840.494 1609.000 C 823.861 1609.000 822.104 1608.836 821.689 1607.250 C 821.284 1605.700 821.219 1605.717 821.116 1607.395 C 821.005 1609.215 820.000 1609.272 795.750 1608.826 C 781.863 1608.571 775.338 1608.521 781.250 1608.714 L 792.000 1609.066 792.000 1624.033 L 792.000 1639.000 781.250 1639.042 C 775.338 1639.065 888.135 1639.047 1031.911 1639.001 C 1175.687 1638.956 1293.681 1638.697 1294.120 1638.426 C 1294.558 1638.155 1294.823 1631.536 1294.709 1623.717 L 1294.500 1609.500 1265.035 1609.235 C 1248.829 1609.089 1235.255 1608.639 1234.871 1608.235 C 1234.488 1607.831 1231.853 1597.375 1229.016 1585.000 C 1226.180 1572.625 1222.757 1557.775 1221.411 1552.000 C 1220.065 1546.225 1217.861 1536.775 1216.514 1531.000 C 1215.167 1525.225 1210.875 1506.550 1206.975 1489.500 C 1198.051 1450.483 1198.278 1451.321 1196.437 1450.614 C 1195.590 1450.289 1195.113 1450.373 1195.377 1450.801 "/></g>
<g fill="#BCC2C4FE" stroke="#BCC2C4FE">
<path d="M 519.834 1355.250 C 527.484 1365.552 536.345 1384.347 542.936 1404.250 L 546.165 1414.000 700.332 1414.145 C 785.125 1414.224 929.988 1414.562 1022.250 1414.895 C 1114.513 1415.228 1190.000 1415.159 1190.000 1414.742 C 1190.000 1414.326 1246.138 1413.995 1314.750 1414.008 L 1439.500 1414.031 1439.236 1382.016 L 1438.972 1350.000 977.454 1350.000 L 515.935 1350.000 519.834 1355.250 "/></g>
<g fill="#547CB4FE" stroke="#547CB4FE">
<path d="M 1440.000 1430.500 L 1440.000 1639.000 1509.000 1639.000 L 1578.000 1639.000 1578.000 1430.500 L 1578.000 1222.000 1509.000 1222.000 L 1440.000 1222.000 1440.000 1430.500 M 1563.083 1307.415 C 1563.313 1307.644 1563.373 1319.569 1563.218 1333.915 L 1562.935 1360.000 1508.968 1360.000 L 1455.000 1360.000 1455.000 1334.167 C 1455.000 1319.958 1455.300 1308.033 1455.667 1307.667 C 1456.375 1306.958 1562.376 1306.710 1563.083 1307.415 M 1563.083 1501.415 C 1563.313 1501.644 1563.373 1513.573 1563.218 1527.924 L 1562.935 1554.017 1509.218 1553.759 L 1455.500 1553.500 1455.232 1528.518 C 1455.085 1514.778 1455.183 1502.965 1455.451 1502.268 C 1455.835 1501.266 1467.128 1501.000 1509.302 1501.000 C 1538.653 1501.000 1562.854 1501.187 1563.083 1501.415 M 1563.000 1592.000 L 1563.000 1618.000 1509.000 1618.000 L 1455.000 1618.000 1455.000 1592.000 L 1455.000 1566.000 1509.000 1566.000 L 1563.000 1566.000 1563.000 1592.000 M 1563.000 1463.000 L 1563.000 1489.000 1509.000 1489.000 L 1455.000 1489.000 1455.000 1463.000 L 1455.000 1437.000 1509.000 1437.000 L 1563.000 1437.000 1563.000 1463.000 M 1563.000 1398.000 L 1563.000 1424.000 1509.000 1424.000 L 1455.000 1424.000 1455.000 1398.000 L 1455.000 1372.000 1509.000 1372.000 L 1563.000 1372.000 1563.000 1398.000 M 1563.000 1269.000 L 1563.000 1295.000 1509.000 1295.000 L 1455.000 1295.000 1455.000 1269.000 L 1455.000 1243.000 1509.000 1243.000 L 1563.000 1243.000 1563.000 1269.000 "/></g>
<g fill="#64A4FEFE" stroke="#64A4FEFE">
<path d="M 439.598 1332.200 C 439.317 1334.015 438.612 1342.443 438.031 1350.930 C 437.449 1359.416 436.824 1366.510 436.641 1366.693 C 436.457 1366.876 434.594 1365.664 432.499 1364.000 L 428.691 1360.973 426.931 1364.905 C 425.963 1367.068 425.429 1369.096 425.746 1369.412 C 426.062 1369.728 425.534 1372.584 424.573 1375.759 L 422.826 1381.530 429.991 1407.515 C 447.215 1469.974 461.311 1531.034 465.496 1561.315 C 466.346 1567.467 467.254 1573.777 467.514 1575.339 C 467.993 1578.221 458.298 1605.000 456.776 1605.000 C 454.970 1605.000 428.887 1583.367 428.491 1581.541 C 428.049 1579.500 422.960 1531.245 421.000 1510.500 C 419.330 1492.837 419.065 1490.040 418.059 1479.500 C 416.317 1461.263 413.576 1426.242 412.540 1409.000 C 411.005 1383.462 411.050 1383.753 407.938 1379.221 C 406.322 1376.867 405.000 1374.301 405.000 1373.519 C 405.000 1372.736 402.976 1370.704 400.502 1369.001 L 396.004 1365.907 387.933 1372.051 C 383.494 1375.430 379.745 1378.039 379.602 1377.848 C 378.432 1376.284 343.370 1333.175 342.379 1332.083 C 341.287 1330.878 336.708 1332.664 311.797 1344.012 C 295.684 1351.352 280.878 1358.515 278.895 1359.929 C 270.686 1365.783 265.110 1376.112 261.746 1391.695 C 258.756 1405.549 258.826 1436.689 261.898 1459.500 C 263.897 1474.344 268.596 1499.930 269.487 1500.821 C 269.701 1501.034 285.766 1496.459 305.188 1490.653 C 324.609 1484.847 342.975 1479.394 346.000 1478.534 C 349.025 1477.674 352.108 1476.584 352.851 1476.113 C 353.923 1475.434 351.562 1467.922 341.466 1439.878 C 334.460 1420.420 328.677 1404.007 328.614 1403.405 C 328.551 1402.802 336.669 1420.577 346.652 1442.905 C 364.367 1482.521 364.753 1483.527 362.652 1484.616 C 361.469 1485.230 356.675 1487.221 352.000 1489.040 C 347.325 1490.859 343.341 1492.466 343.147 1492.610 C 342.600 1493.017 347.727 1517.013 351.536 1531.870 C 356.565 1551.488 358.159 1554.431 368.133 1562.505 C 384.199 1575.511 465.090 1627.000 469.456 1627.000 C 470.216 1627.000 478.818 1624.226 488.572 1620.835 L 506.305 1614.669 505.683 1542.085 C 505.247 1491.194 504.458 1457.545 503.044 1429.500 C 501.935 1407.500 501.062 1388.150 501.104 1386.500 C 501.206 1382.577 501.736 1384.626 511.976 1428.488 C 516.468 1447.732 520.229 1463.563 520.334 1463.668 C 520.524 1463.857 546.142 1457.837 553.170 1455.951 L 556.840 1454.966 552.987 1440.233 C 544.413 1407.447 535.579 1382.985 526.190 1366.033 C 520.086 1355.013 510.463 1345.164 503.500 1342.809 C 500.750 1341.879 486.125 1338.594 471.000 1335.508 C 455.875 1332.423 442.737 1329.673 441.805 1329.399 C 440.512 1329.018 439.988 1329.683 439.598 1332.200 M 493.185 1447.750 C 494.254 1461.392 494.413 1467.902 493.701 1468.801 C 493.134 1469.517 489.185 1473.009 484.926 1476.562 L 477.182 1483.020 464.928 1478.514 C 458.188 1476.035 452.519 1473.853 452.331 1473.664 C 452.142 1473.475 450.015 1463.799 447.603 1452.161 C 443.259 1431.198 443.238 1430.999 445.359 1430.906 C 446.537 1430.855 454.475 1430.243 463.000 1429.547 C 471.525 1428.851 481.456 1428.218 485.069 1428.141 L 491.639 1428.000 493.185 1447.750 "/></g>
<g fill="#BCC2C4FE" stroke="#BCC2C4FE">
<path d="M 655.000 499.994 L 655.000 516.000 1157.000 516.000 L 1659.000 516.000 1659.000 608.500 L 1659.000 701.000 1676.519 701.000 L 1694.039 701.000 1693.769 604.250 L 1693.500 507.500 1690.765 502.313 C 1687.390 495.912 1682.065 490.621 1675.500 487.146 L 1670.500 484.500 1162.750 484.244 L 655.000 483.988 655.000 499.994 "/></g>
<g fill="#007CFEFE" stroke="#007CFEFE">
<path d="M 221.500 320.665 C 216.867 323.113 214.877 325.153 212.881 329.500 C 211.255 333.041 211.041 336.396 211.022 358.750 L 211.000 384.000 433.000 384.000 L 655.000 384.000 655.000 358.968 C 655.000 328.551 654.240 325.717 644.790 320.894 C 641.184 319.053 635.248 319.001 432.790 319.040 C 244.650 319.076 224.210 319.233 221.500 320.665 "/></g>
<g fill="#007CFEFE" stroke="#007CFEFE">
<path d="M 1428.500 702.497 C 1423.501 704.271 1418.477 709.619 1417.079 714.656 C 1416.461 716.881 1416.009 728.502 1416.006 742.250 L 1416.000 766.000 1638.000 766.000 L 1860.000 766.000 1859.978 740.750 C 1859.953 711.576 1859.451 709.312 1851.902 704.316 L 1847.646 701.500 1640.073 701.289 C 1462.972 701.109 1431.913 701.286 1428.500 702.497 "/></g>
<g fill="#007CFEFE" stroke="#007CFEFE">
<path d="M 129.105 1086.635 C 122.699 1089.827 118.532 1095.218 116.979 1102.324 C 116.204 1105.865 115.950 1120.923 116.173 1150.000 C 116.492 1191.424 116.555 1192.603 118.678 1196.568 C 121.574 1201.979 127.962 1207.618 132.679 1208.928 C 135.106 1209.602 152.601 1209.991 180.620 1209.994 L 224.740 1210.000 237.308 1221.500 C 244.220 1227.825 250.128 1233.000 250.438 1233.000 C 250.747 1233.000 251.000 1227.850 251.000 1221.555 L 251.000 1210.110 272.332 1209.805 L 293.665 1209.500 298.556 1206.474 C 301.583 1204.601 304.601 1201.582 306.474 1198.553 L 309.500 1193.660 309.795 1149.080 C 310.004 1117.442 309.752 1103.278 308.926 1100.292 C 307.425 1094.859 302.143 1088.732 296.682 1086.088 C 292.420 1084.025 291.433 1084.000 213.381 1084.000 L 134.393 1084.000 129.105 1086.635 "/></g>
<g fill="#BCC2C4FE" stroke="#BCC2C4FE">
<path d="M 613.195 1513.250 C 612.532 1515.038 598.787 1545.750 582.652 1581.500 L 553.316 1646.500 491.158 1646.758 C 456.971 1646.899 429.000 1647.376 429.000 1647.816 C 429.000 1650.031 432.193 1652.044 438.755 1653.964 C 445.974 1656.077 446.584 1656.087 564.066 1656.032 C 687.264 1655.973 686.282 1656.005 689.656 1651.905 C 690.292 1651.132 694.497 1642.175 699.001 1632.000 C 703.504 1621.825 707.989 1611.700 708.966 1609.500 C 715.739 1594.248 718.989 1586.833 728.036 1566.000 C 733.648 1553.075 740.714 1536.875 743.738 1530.000 C 751.376 1512.637 751.169 1513.312 749.391 1511.534 C 748.043 1510.186 739.764 1510.000 681.129 1510.000 L 614.402 1510.000 613.195 1513.250 "/></g>
<g fill="#929A9CFE" stroke="#929A9CFE">
<path d="M 342.000 1011.000 C 342.000 1222.680 342.335 1329.000 343.002 1329.000 C 343.553 1329.000 348.319 1325.102 353.593 1320.339 C 360.246 1314.330 363.417 1312.057 363.949 1312.918 C 364.421 1313.681 364.938 1312.684 365.295 1310.329 C 365.613 1308.223 367.477 1297.137 369.437 1285.694 C 373.977 1259.180 374.062 1252.851 369.971 1245.602 C 366.436 1239.338 364.496 1229.844 365.451 1223.475 C 365.871 1220.678 367.396 1217.324 369.504 1214.562 C 372.058 1211.216 372.960 1208.956 373.192 1205.317 C 373.470 1200.967 373.219 1200.306 370.602 1198.500 C 363.639 1193.696 361.976 1182.998 367.457 1178.283 C 368.917 1177.027 370.761 1176.000 371.556 1176.000 C 373.461 1176.000 373.392 1175.441 370.833 1170.156 C 369.385 1167.163 368.667 1163.783 368.667 1159.955 C 368.667 1155.880 369.291 1153.172 370.833 1150.558 L 373.000 1146.886 373.000 919.943 L 373.000 693.000 357.500 693.000 L 342.000 693.000 342.000 1011.000 "/></g>
<g fill="#CC7A64FE" stroke="#CC7A64FE">
<path d="M 432.333 1180.079 C 430.867 1181.567 428.535 1182.434 425.115 1182.763 C 420.613 1183.196 420.168 1183.446 421.031 1185.058 C 423.894 1190.407 420.864 1198.263 414.911 1200.929 C 411.527 1202.443 410.394 1203.844 407.083 1210.600 C 404.954 1214.945 402.522 1219.400 401.678 1220.500 L 400.143 1222.500 399.424 1220.500 C 396.645 1212.776 387.998 1207.323 380.345 1208.471 C 375.388 1209.214 369.912 1213.371 367.265 1218.398 C 363.653 1225.263 366.281 1240.570 372.525 1249.034 C 374.676 1251.949 374.959 1253.136 374.422 1256.980 C 373.283 1265.128 368.953 1291.128 365.443 1310.888 C 363.549 1321.552 362.000 1331.115 362.000 1332.141 C 362.000 1333.576 367.636 1336.820 386.498 1346.242 L 410.995 1358.479 415.556 1353.918 L 420.117 1349.356 421.054 1339.452 C 421.570 1334.005 421.742 1328.762 421.437 1327.801 C 421.132 1326.841 418.282 1324.669 415.104 1322.975 C 402.758 1316.394 394.275 1305.559 391.991 1293.450 C 390.595 1286.055 391.113 1284.383 393.418 1288.841 C 395.813 1293.474 405.476 1303.455 410.990 1306.994 C 433.090 1321.175 464.414 1314.953 480.329 1293.222 C 490.293 1279.617 499.996 1252.824 502.507 1231.983 C 503.084 1227.198 502.901 1226.220 501.127 1224.615 C 500.002 1223.597 497.045 1222.534 494.557 1222.253 C 489.940 1221.733 487.315 1219.917 488.473 1218.044 C 489.437 1216.483 496.684 1216.785 500.050 1218.526 L 503.000 1220.051 503.000 1214.709 C 503.000 1209.603 501.331 1198.348 500.334 1196.732 C 500.073 1196.310 498.706 1196.873 497.295 1197.982 C 494.125 1200.476 487.434 1200.660 483.973 1198.349 C 482.613 1197.441 480.112 1195.400 478.415 1193.813 L 475.331 1190.928 470.915 1193.452 C 465.185 1196.727 456.566 1196.937 450.397 1193.950 C 446.403 1192.017 440.999 1186.840 436.500 1180.637 L 434.500 1177.880 432.333 1180.079 "/></g>
<g fill="#AAAEB2FE" stroke="#AAAEB2FE">
<path d="M 891.018 1422.392 C 890.322 1426.462 890.103 1430.358 890.531 1431.050 C 891.021 1431.842 890.904 1432.058 890.215 1431.633 C 889.576 1431.238 889.139 1431.694 889.165 1432.728 C 889.189 1433.703 888.681 1437.132 888.035 1440.349 C 887.390 1443.566 887.104 1446.828 887.400 1447.599 C 887.695 1448.370 887.473 1449.000 886.906 1449.000 C 886.338 1449.000 885.974 1449.788 886.096 1450.750 C 886.218 1451.713 885.956 1453.805 885.513 1455.401 C 885.010 1457.214 885.132 1458.982 885.839 1460.114 C 886.760 1461.588 886.694 1461.820 885.485 1461.356 C 884.400 1460.940 884.000 1461.505 884.000 1463.452 C 884.000 1464.918 884.419 1465.859 884.931 1465.543 C 885.443 1465.226 886.187 1465.494 886.585 1466.138 C 886.983 1466.782 886.881 1467.044 886.357 1466.720 C 884.541 1465.598 883.193 1467.524 882.484 1472.250 L 881.773 1477.000 887.886 1477.000 C 891.249 1477.000 894.000 1476.612 894.000 1476.139 C 894.000 1475.665 895.097 1475.487 896.439 1475.744 C 897.780 1476.000 904.193 1475.718 910.689 1475.118 C 917.185 1474.518 925.425 1473.792 929.000 1473.507 C 946.908 1472.074 985.039 1468.810 989.000 1468.369 C 991.475 1468.094 994.850 1467.840 996.500 1467.804 C 998.150 1467.769 1009.400 1466.901 1021.500 1465.877 C 1033.600 1464.853 1047.775 1463.726 1053.000 1463.373 C 1058.225 1463.020 1062.628 1462.407 1062.785 1462.011 C 1062.942 1461.615 1064.108 1461.489 1065.377 1461.732 C 1066.646 1461.974 1073.493 1461.661 1080.592 1461.035 C 1087.691 1460.410 1096.200 1459.702 1099.500 1459.463 C 1104.964 1459.067 1110.251 1458.624 1123.000 1457.494 C 1125.475 1457.274 1142.350 1455.924 1160.500 1454.494 C 1178.650 1453.063 1194.451 1451.699 1195.614 1451.461 C 1197.262 1451.125 1197.623 1450.477 1197.250 1448.527 C 1196.982 1447.126 1196.313 1446.306 1195.731 1446.666 C 1195.116 1447.046 1194.992 1446.822 1195.427 1446.118 C 1196.371 1444.591 1195.090 1436.826 1194.005 1437.497 C 1193.555 1437.775 1193.365 1437.215 1193.583 1436.251 C 1193.801 1435.288 1192.960 1430.225 1191.715 1425.000 L 1189.449 1415.500 1040.867 1415.247 L 892.284 1414.993 891.018 1422.392 "/></g>
<g fill="#CC7A64FE" stroke="#CC7A64FE">
<path d="M 308.500 1490.202 C 292.000 1495.197 278.367 1499.390 278.205 1499.521 C 277.724 1499.906 283.782 1523.438 288.111 1538.000 C 296.906 1567.585 303.656 1582.720 311.630 1590.735 C 326.144 1605.321 367.969 1626.045 413.221 1641.073 L 428.056 1646.000 479.719 1646.000 C 526.880 1646.000 531.213 1645.863 529.441 1644.426 C 527.255 1642.653 526.373 1642.578 537.752 1645.138 C 541.815 1646.052 543.600 1646.048 545.638 1645.119 L 548.272 1643.919 545.962 1641.459 C 543.504 1638.843 543.899 1638.340 547.075 1640.040 C 548.710 1640.915 549.176 1640.667 550.009 1638.475 C 550.554 1637.042 551.000 1635.499 551.000 1635.046 C 551.000 1634.594 544.421 1629.223 536.379 1623.111 C 525.057 1614.506 521.061 1612.000 518.664 1612.000 C 516.963 1612.000 506.104 1615.326 494.535 1619.391 C 482.966 1623.457 472.464 1627.094 471.197 1627.475 C 466.336 1628.938 385.148 1577.906 364.593 1560.468 C 357.287 1554.270 355.863 1551.351 350.948 1532.500 C 348.691 1523.847 340.000 1483.291 340.000 1481.415 C 340.000 1480.689 339.059 1480.952 308.500 1490.202 "/></g>
<g fill="#007CFEFE" stroke="#007CFEFE">
<path d="M 1594.000 1398.000 L 1594.000 1424.000 1727.000 1424.000 L 1860.000 1424.000 1860.000 1398.000 L 1860.000 1372.000 1727.000 1372.000 L 1594.000 1372.000 1594.000 1398.000 "/></g>
<g fill="#007CFEFE" stroke="#007CFEFE">
<path d="M 1594.000 1592.500 L 1594.000 1618.000 1727.000 1618.000 L 1860.000 1618.000 1860.000 1592.500 L 1860.000 1567.000 1727.000 1567.000 L 1594.000 1567.000 1594.000 1592.500 "/></g>
<g fill="#007CFEFE" stroke="#007CFEFE">
<path d="M 1594.000 1527.500 L 1594.000 1553.000 1727.000 1553.000 L 1860.000 1553.000 1860.000 1527.500 L 1860.000 1502.000 1727.000 1502.000 L 1594.000 1502.000 1594.000 1527.500 "/></g>
<g fill="#007CFEFE" stroke="#007CFEFE">
<path d="M 1594.000 1462.500 L 1594.000 1488.000 1727.000 1488.000 L 1860.000 1488.000 1860.000 1462.500 L 1860.000 1437.000 1727.000 1437.000 L 1594.000 1437.000 1594.000 1462.500 "/></g>
<g fill="#007CFEFE" stroke="#007CFEFE">
<path d="M 1594.000 1333.500 L 1594.000 1359.000 1727.000 1359.000 L 1860.000 1359.000 1860.000 1333.500 L 1860.000 1308.000 1727.000 1308.000 L 1594.000 1308.000 1594.000 1333.500 "/></g>
<g fill="#007CFEFE" stroke="#007CFEFE">
<path d="M 1594.000 1268.500 L 1594.000 1294.000 1727.000 1294.000 L 1860.000 1294.000 1860.000 1268.500 L 1860.000 1243.000 1727.000 1243.000 L 1594.000 1243.000 1594.000 1268.500 "/></g>
<g fill="#BCC2C4FE" stroke="#BCC2C4FE">
<path d="M 373.000 919.674 L 373.000 1147.349 375.250 1145.241 C 376.488 1144.082 378.767 1142.653 380.315 1142.067 C 384.264 1140.570 393.995 1140.749 397.112 1142.375 C 399.679 1143.715 399.740 1143.668 400.720 1139.619 C 401.269 1137.353 401.834 1135.050 401.977 1134.500 C 402.120 1133.950 402.184 1034.163 402.118 912.750 L 402.000 692.000 387.500 692.000 L 373.000 692.000 373.000 919.674 "/></g>
<g fill="#7CB0FEFE" stroke="#7CB0FEFE">
<path d="M 673.607 1036.582 C 673.273 1037.452 673.000 1039.909 673.000 1042.043 C 673.000 1045.815 672.866 1045.962 668.177 1047.355 C 665.524 1048.143 661.039 1049.960 658.210 1051.394 C 655.381 1052.827 652.617 1054.000 652.068 1054.000 C 651.519 1054.000 649.461 1052.588 647.496 1050.862 L 643.922 1047.724 641.337 1050.112 C 639.916 1051.426 636.384 1054.832 633.489 1057.681 L 628.225 1062.863 630.460 1064.963 C 635.204 1069.419 635.430 1071.090 632.161 1077.573 C 630.517 1080.833 628.666 1085.413 628.048 1087.750 C 627.021 1091.629 626.643 1092.001 623.711 1092.014 C 616.042 1092.046 616.000 1092.108 616.000 1103.492 L 616.000 1113.750 619.125 1114.375 C 620.844 1114.719 623.267 1115.000 624.510 1115.000 C 626.352 1115.000 627.086 1115.971 628.482 1120.250 C 629.424 1123.138 631.343 1127.851 632.747 1130.725 L 635.300 1135.950 631.900 1140.022 L 628.500 1144.094 635.805 1151.626 C 643.885 1159.956 642.432 1159.674 649.817 1154.340 C 652.013 1152.755 652.381 1152.788 656.817 1154.983 C 659.393 1156.256 663.975 1158.078 667.000 1159.030 C 672.127 1160.644 672.518 1160.990 672.770 1164.131 C 673.430 1172.370 672.886 1172.000 684.357 1172.000 L 694.676 1172.000 695.588 1166.372 L 696.500 1160.745 702.500 1158.877 C 705.800 1157.850 710.300 1155.965 712.500 1154.688 L 716.500 1152.366 720.817 1155.858 L 725.134 1159.350 732.652 1151.832 C 739.038 1145.446 739.966 1144.101 738.813 1142.907 C 738.066 1142.133 736.512 1140.182 735.359 1138.571 L 733.263 1135.641 736.567 1129.071 C 738.385 1125.457 740.175 1120.813 740.547 1118.750 C 741.135 1115.484 741.579 1115.000 743.986 1115.000 C 745.506 1115.000 748.156 1114.719 749.875 1114.375 L 753.000 1113.750 753.000 1103.492 C 753.000 1092.023 753.015 1092.044 744.838 1092.014 C 741.369 1092.001 741.141 1091.796 740.523 1088.134 C 740.163 1086.008 738.364 1081.277 736.525 1077.621 L 733.180 1070.973 736.657 1066.812 L 740.134 1062.650 732.608 1055.125 L 725.083 1047.599 720.923 1050.941 L 716.764 1054.284 712.132 1051.993 C 709.584 1050.732 705.025 1048.921 702.000 1047.968 L 696.500 1046.235 695.636 1040.617 L 694.773 1035.000 684.493 1035.000 C 676.042 1035.000 674.106 1035.281 673.607 1036.582 M 696.543 1077.860 C 705.929 1082.301 711.802 1090.673 712.722 1100.928 C 713.363 1108.066 711.899 1113.357 707.385 1120.211 C 698.568 1133.599 678.135 1135.913 665.663 1124.935 C 659.066 1119.128 655.995 1112.317 656.022 1103.554 C 656.048 1095.270 658.006 1090.213 663.575 1084.048 C 669.478 1077.515 674.827 1075.224 684.500 1075.087 C 689.145 1075.021 691.864 1075.647 696.543 1077.860 "/></g>
<g fill="#1A2E34FE" stroke="#1A2E34FE">
<path d="M 423.854 1117.371 C 419.648 1118.616 414.923 1120.471 413.354 1121.494 C 406.946 1125.670 402.350 1132.575 400.563 1140.713 L 399.875 1143.846 396.470 1142.423 C 389.543 1139.529 379.561 1141.263 374.169 1146.298 C 368.187 1151.883 366.845 1161.918 370.948 1170.392 C 372.202 1172.984 373.065 1175.193 372.864 1175.302 C 372.664 1175.411 371.157 1176.189 369.514 1177.030 C 365.520 1179.078 363.827 1182.580 364.335 1187.744 C 364.789 1192.355 368.735 1198.464 371.911 1199.472 C 373.302 1199.913 374.003 1201.388 374.484 1204.884 L 375.145 1209.689 379.519 1208.688 C 383.033 1207.884 384.787 1208.029 388.440 1209.424 C 392.873 1211.117 399.000 1217.095 399.000 1219.728 C 399.000 1220.428 399.650 1221.000 400.444 1221.000 C 401.263 1221.000 403.873 1217.033 406.482 1211.823 C 410.464 1203.868 411.594 1202.413 414.971 1200.901 C 417.234 1199.888 419.524 1197.888 420.434 1196.128 C 422.191 1192.729 422.526 1186.443 421.000 1185.500 C 418.842 1184.166 420.220 1183.233 425.033 1182.771 C 428.366 1182.451 430.864 1181.537 432.431 1180.065 L 434.796 1177.843 437.839 1182.266 C 441.580 1187.704 447.270 1192.797 451.645 1194.625 C 457.097 1196.903 465.805 1196.373 470.915 1193.452 L 475.331 1190.928 478.415 1193.813 C 480.112 1195.400 482.613 1197.441 483.973 1198.349 C 487.434 1200.660 494.125 1200.476 497.295 1197.982 C 498.706 1196.873 500.073 1196.310 500.334 1196.732 C 501.331 1198.348 503.000 1209.603 503.000 1214.709 L 503.000 1220.051 500.050 1218.526 C 498.427 1217.687 495.304 1217.000 493.109 1217.000 C 485.557 1217.000 486.909 1221.392 494.733 1222.273 C 498.184 1222.662 500.046 1223.514 501.734 1225.477 C 503.636 1227.688 504.561 1228.036 507.076 1227.483 C 508.749 1227.116 511.667 1225.267 513.559 1223.374 C 516.399 1220.534 517.000 1219.192 517.000 1215.689 C 517.000 1213.355 516.359 1210.530 515.576 1209.412 C 514.271 1207.548 514.430 1207.157 517.491 1204.715 C 519.327 1203.249 521.124 1200.714 521.482 1199.081 C 521.864 1197.344 523.350 1195.342 525.061 1194.258 C 530.049 1191.100 533.000 1186.183 533.000 1181.028 C 533.000 1173.760 528.863 1169.027 520.245 1166.436 L 514.991 1164.855 517.995 1161.851 C 523.097 1156.749 521.932 1147.985 515.339 1141.864 C 509.934 1136.846 506.158 1135.538 496.755 1135.427 C 491.944 1135.371 488.286 1135.047 488.625 1134.709 C 490.303 1133.030 487.649 1128.878 483.240 1126.286 C 479.192 1123.907 477.405 1123.500 471.000 1123.500 C 464.783 1123.500 462.717 1123.942 458.921 1126.084 L 454.341 1128.668 453.099 1125.861 C 451.596 1122.467 445.749 1117.737 441.101 1116.156 C 436.294 1114.521 432.600 1114.781 423.854 1117.371 "/></g>
<g fill="#7CB0FEFE" stroke="#7CB0FEFE">
<path d="M 1314.985 774.750 C 1314.964 779.900 1314.263 780.673 1307.504 782.999 C 1304.261 784.115 1300.586 785.696 1299.339 786.514 C 1296.138 788.611 1294.893 788.397 1290.962 785.071 L 1287.500 782.141 1280.750 788.794 C 1277.038 792.453 1274.000 795.887 1274.000 796.426 C 1274.000 796.964 1275.407 798.856 1277.126 800.630 L 1280.252 803.856 1277.991 807.514 C 1276.748 809.526 1274.948 813.721 1273.993 816.836 L 1272.255 822.500 1267.128 823.432 L 1262.000 824.365 1262.000 834.182 L 1262.000 844.000 1264.935 844.000 C 1270.128 844.000 1272.696 845.573 1273.387 849.178 C 1273.737 851.005 1275.343 855.101 1276.956 858.279 L 1279.887 864.059 1276.944 867.411 C 1275.325 869.255 1274.000 871.179 1274.000 871.686 C 1274.000 872.741 1280.881 879.630 1281.556 879.250 C 1281.800 879.113 1281.691 879.000 1281.313 879.000 C 1280.935 879.000 1281.919 880.350 1283.500 882.000 C 1285.081 883.650 1286.852 884.993 1287.437 884.984 C 1288.022 884.975 1289.989 883.655 1291.809 882.051 L 1295.117 879.134 1302.280 882.567 C 1306.220 884.455 1309.987 886.000 1310.650 886.000 C 1313.043 886.000 1315.000 889.182 1315.000 893.071 L 1315.000 897.000 1324.906 897.000 L 1334.812 897.000 1335.493 892.052 C 1336.169 887.137 1336.209 887.092 1341.337 885.438 C 1344.177 884.522 1348.400 882.738 1350.721 881.473 L 1354.943 879.173 1358.609 882.086 C 1360.625 883.689 1362.539 885.000 1362.862 885.000 C 1363.185 885.000 1366.465 882.007 1370.151 878.350 L 1376.853 871.700 1373.771 867.865 L 1370.690 864.031 1373.737 857.265 C 1375.412 853.544 1377.052 849.316 1377.381 847.869 C 1378.018 845.062 1380.243 844.037 1385.750 844.014 L 1389.000 844.000 1389.000 834.115 L 1389.000 824.230 1383.593 823.555 C 1378.794 822.955 1378.113 822.577 1377.533 820.190 C 1377.173 818.710 1375.495 814.476 1373.805 810.780 C 1370.432 803.404 1370.300 804.451 1375.486 797.374 C 1376.220 796.372 1374.825 794.368 1370.015 789.515 C 1366.463 785.932 1363.154 783.000 1362.661 783.000 C 1362.168 783.000 1360.263 784.318 1358.428 785.929 L 1355.092 788.858 1349.796 786.014 C 1346.883 784.450 1342.645 782.680 1340.378 782.081 C 1336.386 781.026 1336.236 780.835 1335.594 775.996 L 1334.931 771.000 1324.966 771.000 L 1315.000 771.000 1314.985 774.750 M 1335.557 809.460 C 1347.426 814.419 1354.238 828.791 1350.618 841.241 C 1347.293 852.679 1337.382 860.008 1325.261 859.990 C 1309.700 859.968 1299.044 849.404 1299.044 834.000 C 1299.044 823.911 1302.956 816.660 1311.257 811.363 C 1318.166 806.955 1327.763 806.203 1335.557 809.460 "/></g>
<g fill="#CC7A64FE" stroke="#CC7A64FE">
<path d="M 526.090 1463.219 L 505.680 1468.250 506.339 1504.875 C 506.701 1525.019 506.998 1549.199 506.999 1558.609 L 507.000 1575.718 511.130 1580.410 C 518.266 1588.517 532.069 1596.678 552.659 1604.964 L 562.487 1608.919 563.685 1606.631 C 565.241 1603.662 581.000 1567.316 581.000 1566.697 C 581.000 1566.438 577.871 1563.697 574.047 1560.607 C 565.748 1553.902 562.108 1549.372 560.923 1544.275 C 559.718 1539.092 554.582 1502.361 552.005 1480.500 C 549.447 1458.796 549.291 1457.975 547.731 1458.094 C 547.054 1458.146 537.316 1460.452 526.090 1463.219 "/></g>
<g fill="#929A9CFE" stroke="#929A9CFE">
<path d="M 859.484 1415.250 C 858.980 1416.640 822.000 1606.058 822.000 1607.249 C 822.000 1607.662 830.289 1608.000 840.421 1608.000 L 858.841 1608.000 859.401 1605.250 C 859.709 1603.738 864.750 1574.600 870.604 1540.500 C 876.457 1506.400 883.650 1464.775 886.588 1448.000 C 889.526 1431.225 891.946 1416.713 891.965 1415.750 C 891.997 1414.155 890.583 1414.000 875.969 1414.000 C 864.052 1414.000 859.821 1414.321 859.484 1415.250 "/></g>
<g fill="#007CFEFE" stroke="#007CFEFE">
<path d="M 414.250 1382.706 C 412.280 1383.085 412.000 1383.752 412.000 1388.058 C 412.000 1406.438 422.970 1531.502 428.650 1577.876 L 429.308 1583.252 442.768 1593.876 C 450.171 1599.719 456.446 1604.500 456.712 1604.500 C 456.979 1604.500 459.423 1598.875 462.145 1592.000 C 467.982 1577.256 467.980 1577.517 462.471 1546.500 C 456.531 1513.064 447.176 1473.450 431.239 1414.250 L 422.557 1382.000 419.529 1382.136 C 417.863 1382.211 415.488 1382.467 414.250 1382.706 "/></g>
<g fill="#0054B6FE" stroke="#0054B6FE">
<path d="M 1456.000 1398.000 L 1456.000 1424.000 1509.500 1424.000 L 1563.000 1424.000 1563.000 1398.000 L 1563.000 1372.000 1509.500 1372.000 L 1456.000 1372.000 1456.000 1398.000 "/></g>
<g fill="#0054B6FE" stroke="#0054B6FE">
<path d="M 1456.000 1592.500 L 1456.000 1618.000 1509.500 1618.000 L 1563.000 1618.000 1563.000 1592.500 L 1563.000 1567.000 1509.500 1567.000 L 1456.000 1567.000 1456.000 1592.500 "/></g>
<g fill="#0054B6FE" stroke="#0054B6FE">
<path d="M 1456.000 1527.500 L 1456.000 1553.000 1509.500 1553.000 L 1563.000 1553.000 1563.000 1527.500 L 1563.000 1502.000 1509.500 1502.000 L 1456.000 1502.000 1456.000 1527.500 "/></g>
<g fill="#0054B6FE" stroke="#0054B6FE">
<path d="M 1456.000 1462.500 L 1456.000 1488.000 1509.500 1488.000 L 1563.000 1488.000 1563.000 1462.500 L 1563.000 1437.000 1509.500 1437.000 L 1456.000 1437.000 1456.000 1462.500 "/></g>
<g fill="#0054B6FE" stroke="#0054B6FE">
<path d="M 1456.000 1333.500 L 1456.000 1359.000 1509.500 1359.000 L 1563.000 1359.000 1563.000 1333.500 L 1563.000 1308.000 1509.500 1308.000 L 1456.000 1308.000 1456.000 1333.500 "/></g>
<g fill="#0054B6FE" stroke="#0054B6FE">
<path d="M 1456.000 1268.500 L 1456.000 1294.000 1509.500 1294.000 L 1563.000 1294.000 1563.000 1268.500 L 1563.000 1243.000 1509.500 1243.000 L 1456.000 1243.000 1456.000 1268.500 "/></g>
<g fill="#BCC2C4FE" stroke="#BCC2C4FE">
<path d="M 1659.000 1148.000 L 1659.000 1221.000 1676.500 1221.000 L 1694.000 1221.000 1694.000 1148.000 L 1694.000 1075.000 1676.500 1075.000 L 1659.000 1075.000 1659.000 1148.000 "/></g>
<g fill="#1A2E34FE" stroke="#1A2E34FE">
<path d="M 764.166 1720.526 C 762.333 1721.322 757.833 1724.817 754.166 1728.291 C 748.760 1733.415 734.455 1745.909 733.191 1746.612 C 733.022 1746.707 733.546 1748.371 734.356 1750.310 C 735.753 1753.654 735.623 1755.000 733.901 1755.000 C 733.105 1755.000 731.566 1751.362 731.507 1749.340 C 731.483 1748.532 730.905 1748.596 729.599 1749.551 C 727.940 1750.764 727.871 1751.275 728.997 1753.993 C 729.697 1755.682 729.995 1757.339 729.659 1757.675 C 728.763 1758.571 726.000 1756.000 726.000 1754.271 C 726.000 1753.328 725.423 1753.007 724.418 1753.393 C 723.548 1753.727 722.637 1754.000 722.393 1754.000 C 722.148 1754.000 722.635 1755.328 723.474 1756.950 C 724.313 1758.573 725.000 1760.373 725.000 1760.950 C 725.000 1762.533 722.295 1762.210 721.658 1760.551 C 721.228 1759.430 720.389 1759.769 717.945 1762.051 C 714.373 1765.388 708.252 1766.109 705.643 1763.500 C 704.818 1762.675 702.648 1762.003 700.821 1762.006 C 692.263 1762.020 685.000 1766.657 685.000 1772.106 C 685.000 1776.378 686.381 1778.478 691.515 1782.010 C 694.964 1784.383 695.999 1785.720 695.996 1787.798 C 695.991 1791.484 692.935 1796.197 689.413 1797.949 C 684.780 1800.253 679.178 1805.964 679.677 1807.873 C 679.998 1809.102 687.419 1811.995 706.628 1818.383 C 721.207 1823.231 733.261 1827.041 733.414 1826.849 C 733.568 1826.657 735.980 1821.671 738.776 1815.769 C 743.440 1805.922 743.814 1804.598 743.309 1799.702 L 742.758 1794.367 747.726 1789.933 C 752.231 1785.913 754.152 1782.530 768.347 1753.617 C 776.956 1736.081 784.000 1721.612 784.000 1721.464 C 784.000 1721.317 782.583 1720.702 780.851 1720.098 C 776.490 1718.578 768.160 1718.792 764.166 1720.526 "/></g>
<g fill="#B2D0FEFE" stroke="#B2D0FEFE">
<path d="M 1277.342 674.038 C 1276.998 675.762 1275.992 677.389 1275.108 677.654 C 1274.224 677.919 1271.557 679.014 1269.182 680.088 C 1264.895 682.026 1264.845 682.026 1262.094 680.067 L 1259.324 678.094 1255.025 682.474 L 1250.727 686.854 1252.722 689.593 C 1254.487 692.016 1254.561 692.629 1253.362 694.916 C 1252.618 696.337 1251.354 699.188 1250.555 701.250 C 1249.317 704.446 1248.652 705.000 1246.051 705.000 L 1243.000 705.000 1243.000 711.500 L 1243.000 718.000 1246.293 718.000 C 1249.395 718.000 1249.695 718.322 1251.473 723.552 C 1252.511 726.606 1253.737 729.338 1254.198 729.623 C 1254.659 729.907 1254.071 731.496 1252.891 733.153 L 1250.746 736.165 1255.035 740.536 L 1259.324 744.906 1262.001 742.999 C 1264.655 741.110 1264.731 741.114 1270.576 743.489 C 1275.509 745.494 1276.604 746.393 1277.277 748.990 C 1278.079 752.086 1278.096 752.093 1284.284 751.797 C 1290.275 751.510 1290.505 751.400 1290.994 748.571 C 1291.350 746.510 1292.242 745.445 1294.006 744.973 C 1295.385 744.605 1298.031 743.518 1299.886 742.559 C 1303.144 740.874 1303.352 740.884 1305.992 742.836 L 1308.725 744.856 1312.959 740.541 C 1317.140 736.282 1317.173 736.193 1315.509 733.654 C 1313.899 731.197 1313.936 730.798 1316.343 724.790 C 1318.597 719.165 1319.188 718.467 1321.932 718.187 L 1325.000 717.873 1325.000 711.500 L 1325.000 705.127 1321.888 704.813 C 1319.090 704.532 1318.523 703.868 1316.278 698.241 C 1313.884 692.240 1313.852 691.875 1315.488 689.378 C 1317.179 686.797 1317.156 686.735 1312.935 682.434 L 1308.676 678.094 1305.873 680.091 C 1303.191 682.001 1302.927 682.014 1299.791 680.392 C 1297.988 679.460 1295.385 678.395 1294.006 678.027 C 1292.242 677.555 1291.350 676.490 1290.994 674.429 C 1290.504 671.597 1290.280 671.490 1284.228 671.202 L 1277.969 670.904 1277.342 674.038 "/></g>
<g fill="#B2D0FEFE" stroke="#B2D0FEFE">
<path d="M 730.813 1184.146 C 730.543 1186.857 729.947 1187.455 726.500 1188.473 C 724.300 1189.123 721.507 1190.278 720.292 1191.041 C 718.323 1192.279 717.832 1192.191 715.742 1190.227 L 713.399 1188.026 708.763 1192.763 C 704.184 1197.442 704.149 1197.527 705.941 1199.710 C 707.705 1201.858 707.684 1202.102 705.186 1208.460 C 702.871 1214.350 702.337 1215.000 699.808 1215.000 C 697.019 1215.000 697.000 1215.043 697.000 1221.500 C 697.000 1227.957 697.019 1228.000 699.808 1228.000 C 702.345 1228.000 702.871 1228.649 705.262 1234.734 L 707.908 1241.469 705.750 1243.767 L 703.591 1246.064 708.263 1250.737 L 712.936 1255.409 715.233 1253.250 L 717.531 1251.092 724.266 1253.738 C 730.351 1256.129 731.000 1256.655 731.000 1259.192 C 731.000 1261.981 731.043 1262.000 737.500 1262.000 L 744.000 1262.000 744.000 1259.078 C 744.000 1256.582 744.547 1255.979 747.750 1254.949 C 749.813 1254.285 752.725 1253.035 754.223 1252.171 C 756.790 1250.691 757.084 1250.730 759.344 1252.853 L 761.742 1255.106 765.871 1250.894 C 770.430 1246.243 770.699 1245.430 768.489 1242.988 C 767.137 1241.494 767.181 1240.802 768.901 1236.409 C 769.959 1233.709 771.074 1230.713 771.381 1229.750 C 771.749 1228.591 772.960 1228.000 774.969 1228.000 L 778.000 1228.000 778.000 1221.563 L 778.000 1215.127 774.816 1214.813 C 772.372 1214.573 771.474 1213.905 770.953 1211.941 C 770.580 1210.534 769.478 1207.702 768.503 1205.648 C 766.762 1201.980 766.770 1201.874 768.931 1199.574 L 771.130 1197.233 766.315 1192.680 L 761.500 1188.128 759.252 1190.236 L 757.005 1192.344 752.252 1190.251 C 749.639 1189.099 746.713 1187.911 745.750 1187.610 C 744.589 1187.247 744.000 1186.043 744.000 1184.031 L 744.000 1181.000 737.563 1181.000 L 731.127 1181.000 730.813 1184.146 "/></g>
<g fill="#64A4FEFE" stroke="#64A4FEFE">
<path d="M 284.482 1536.000 C 285.668 1556.752 287.228 1608.289 286.787 1612.195 C 286.238 1617.063 281.847 1628.441 271.852 1650.895 C 264.511 1667.389 263.207 1671.164 268.184 1661.513 C 272.418 1653.303 280.897 1645.278 290.185 1640.688 C 312.437 1629.693 339.336 1629.075 382.209 1638.575 C 394.770 1641.357 415.850 1646.866 428.242 1650.604 C 429.669 1651.035 429.839 1650.739 429.183 1648.966 C 428.539 1647.225 424.975 1645.664 410.941 1640.978 C 367.560 1626.490 326.252 1605.935 311.406 1591.449 C 303.217 1583.458 296.883 1569.019 285.548 1532.500 L 283.996 1527.500 284.482 1536.000 "/></g>
<g fill="#007CFEFE" stroke="#007CFEFE">
<path d="M 997.000 956.399 L 997.000 993.000 1005.500 993.000 L 1014.000 993.000 1014.000 983.000 L 1014.000 973.000 1023.451 973.000 C 1039.476 973.000 1047.734 970.357 1054.252 963.143 C 1058.308 958.653 1059.986 953.823 1059.994 946.616 C 1060.003 938.952 1058.038 933.985 1052.992 928.917 C 1045.781 921.675 1042.093 920.767 1017.750 920.244 L 997.000 919.798 997.000 956.399 "/></g>
<g fill="#D6E6FEFE" stroke="#D6E6FEFE">
<path d="M 1516.000 827.500 L 1516.000 834.000 1630.000 834.000 L 1744.000 834.000 1744.000 827.500 L 1744.000 821.000 1630.000 821.000 L 1516.000 821.000 1516.000 827.500 "/></g>
<g fill="#007CFEFE" stroke="#007CFEFE">
<path d="M 1516.000 919.500 L 1516.000 926.000 1630.000 926.000 L 1744.000 926.000 1744.000 919.500 L 1744.000 913.000 1630.000 913.000 L 1516.000 913.000 1516.000 919.500 "/></g>
<g fill="#007CFEFE" stroke="#007CFEFE">
<path d="M 1516.000 887.500 L 1516.000 894.000 1630.000 894.000 L 1744.000 894.000 1744.000 887.500 L 1744.000 881.000 1630.000 881.000 L 1516.000 881.000 1516.000 887.500 "/></g>
<g fill="#007CFEFE" stroke="#007CFEFE">
<path d="M 938.642 923.250 C 937.880 925.038 930.674 941.225 922.629 959.223 C 914.583 977.220 908.000 992.182 908.000 992.473 C 908.000 992.763 911.713 993.000 916.250 993.000 L 924.500 993.000 927.654 985.250 L 930.808 977.500 948.028 977.500 L 965.247 977.500 968.374 985.269 L 971.500 993.038 980.097 992.769 L 988.694 992.500 972.597 956.278 L 956.500 920.057 948.263 920.028 L 940.027 920.000 938.642 923.250 "/></g>
<g fill="#007CFEFE" stroke="#007CFEFE">
<path d="M 1516.000 1014.000 L 1516.000 1020.000 1630.000 1020.000 L 1744.000 1020.000 1744.000 1014.000 L 1744.000 1008.000 1630.000 1008.000 L 1516.000 1008.000 1516.000 1014.000 "/></g>
<g fill="#94BEFEFE" stroke="#94BEFEFE">
<path d="M 463.542 1429.646 C 453.115 1430.436 444.374 1431.293 444.117 1431.549 C 443.736 1431.931 451.771 1473.105 452.338 1473.672 C 452.433 1473.766 458.114 1475.879 464.963 1478.366 L 477.415 1482.888 482.853 1478.194 C 485.844 1475.612 489.657 1472.338 491.326 1470.918 L 494.360 1468.336 492.930 1448.418 L 491.500 1428.500 487.000 1428.355 C 484.525 1428.276 473.969 1428.857 463.542 1429.646 "/></g>
<g fill="#D6E6FEFE" stroke="#D6E6FEFE">
<path d="M 1516.000 947.500 L 1516.000 954.000 1597.500 954.000 L 1679.000 954.000 1679.000 947.500 L 1679.000 941.000 1597.500 941.000 L 1516.000 941.000 1516.000 947.500 "/></g>
<g fill="#000406FE" stroke="#000406FE">
<path d="M 631.000 1661.944 C 588.703 1671.793 561.029 1679.693 552.500 1684.353 C 544.044 1688.974 549.340 1692.677 567.948 1695.155 C 572.927 1695.818 577.000 1696.692 577.000 1697.099 C 577.000 1697.505 575.332 1698.868 573.294 1700.127 L 569.588 1702.418 575.544 1705.160 C 578.820 1706.668 581.975 1707.924 582.556 1707.951 C 583.136 1707.978 593.261 1701.870 605.056 1694.377 C 657.197 1661.255 655.099 1662.682 654.791 1660.531 C 654.337 1657.361 649.433 1657.652 631.000 1661.944 "/></g>
<g fill="#1A2E34FE" stroke="#1A2E34FE">
<path d="M 1519.000 856.000 L 1519.000 862.500 1600.750 862.262 L 1682.500 862.023 1682.500 856.000 L 1682.500 849.977 1600.750 849.738 L 1519.000 849.500 1519.000 856.000 "/></g>
<g fill="#000406FE" stroke="#000406FE">
<path d="M 338.000 1744.375 C 338.000 1746.069 389.006 1773.372 402.500 1778.900 C 406.900 1780.703 411.043 1782.872 411.706 1783.721 C 412.370 1784.569 413.430 1787.756 414.063 1790.804 C 416.011 1800.187 413.291 1805.707 405.316 1808.551 C 401.746 1809.825 402.360 1809.915 414.857 1809.956 C 426.073 1809.993 428.126 1809.770 427.662 1808.563 C 427.359 1807.772 426.609 1805.184 425.996 1802.813 C 425.383 1800.441 424.670 1797.769 424.413 1796.876 C 424.057 1795.639 425.561 1794.652 430.723 1792.736 C 439.049 1789.645 464.900 1778.659 468.712 1776.592 C 470.246 1775.760 470.930 1775.062 470.233 1775.040 C 465.240 1774.882 404.407 1764.585 399.570 1763.079 C 396.231 1762.040 381.800 1757.530 367.500 1753.059 C 353.200 1748.587 340.713 1744.689 339.750 1744.397 C 338.788 1744.104 338.000 1744.095 338.000 1744.375 "/></g>
<g fill="#007CFEFE" stroke="#007CFEFE">
<path d="M 1269.000 1082.000 C 1269.000 1083.926 1269.667 1084.000 1287.000 1084.000 L 1305.000 1084.000 1305.000 1138.500 L 1305.000 1193.000 1431.500 1193.000 L 1558.000 1193.000 1558.000 1158.469 C 1558.000 1126.484 1558.129 1123.892 1559.750 1123.320 C 1565.558 1121.270 1568.343 1114.498 1565.578 1109.151 C 1563.613 1105.351 1561.230 1104.000 1556.489 1104.000 C 1551.700 1104.000 1547.000 1108.444 1547.000 1112.973 C 1547.000 1117.355 1549.582 1121.857 1552.518 1122.594 L 1555.000 1123.217 1555.000 1156.608 L 1555.000 1190.000 1431.500 1190.000 L 1308.000 1190.000 1308.000 1135.000 L 1308.000 1080.000 1288.500 1080.000 C 1269.667 1080.000 1269.000 1080.068 1269.000 1082.000 "/></g>
<g fill="#007CFEFE" stroke="#007CFEFE">
<path d="M 510.000 745.706 C 507.229 746.719 504.109 750.228 503.495 753.022 C 502.589 757.149 505.185 762.420 508.877 763.949 L 512.000 765.243 512.000 861.121 L 512.000 957.000 599.000 957.000 C 675.667 957.000 686.000 956.822 686.000 955.500 C 686.000 954.178 675.833 954.000 600.500 954.000 L 515.000 954.000 515.000 859.567 C 515.000 766.429 515.027 765.126 516.974 764.508 C 521.853 762.960 524.620 754.895 521.970 749.945 C 520.052 746.361 514.037 744.231 510.000 745.706 "/></g>
<g fill="#007CFEFE" stroke="#007CFEFE">
<path d="M 1697.000 948.500 L 1697.000 955.000 1751.000 955.000 L 1805.000 955.000 1805.000 948.500 L 1805.000 942.000 1751.000 942.000 L 1697.000 942.000 1697.000 948.500 "/></g>
<g fill="#007CFEFE" stroke="#007CFEFE">
<path d="M 1701.000 856.500 L 1701.000 863.000 1755.000 863.000 L 1809.000 863.000 1809.000 856.500 L 1809.000 850.000 1755.000 850.000 L 1701.000 850.000 1701.000 856.500 "/></g>
<g fill="#CC7A64FE" stroke="#CC7A64FE">
<path d="M 478.149 1783.218 C 475.823 1794.974 475.799 1796.317 477.865 1799.623 C 479.800 1802.720 479.873 1802.742 486.658 1802.264 C 492.873 1801.825 493.739 1802.004 496.106 1804.210 C 497.540 1805.545 498.908 1807.224 499.146 1807.939 C 499.455 1808.864 504.198 1807.147 515.540 1802.007 C 524.318 1798.028 532.400 1794.414 533.500 1793.975 C 534.600 1793.536 538.200 1791.947 541.500 1790.443 L 547.500 1787.709 518.000 1783.005 C 501.775 1780.417 486.451 1777.993 483.946 1777.618 L 479.391 1776.936 478.149 1783.218 "/></g>
<g fill="#1A2E34FE" stroke="#1A2E34FE">
<path d="M 1516.000 976.500 L 1516.000 984.000 1556.750 984.002 L 1597.500 984.005 1597.171 976.502 L 1596.842 969.000 1556.421 969.000 L 1516.000 969.000 1516.000 976.500 "/></g>
<g fill="#007CFEFE" stroke="#007CFEFE">
<path d="M 1073.000 956.500 L 1073.000 993.000 1081.000 993.000 L 1089.000 993.000 1089.000 956.500 L 1089.000 920.000 1081.000 920.000 L 1073.000 920.000 1073.000 956.500 "/></g>
<g fill="#64A4FEFE" stroke="#64A4FEFE">
<path d="M 359.000 1316.205 C 357.075 1317.936 352.928 1321.664 349.784 1324.491 L 344.068 1329.630 362.562 1350.315 C 372.734 1361.692 381.301 1371.000 381.600 1371.000 C 381.899 1371.000 386.336 1367.627 391.461 1363.505 L 400.779 1356.011 405.046 1357.516 C 407.392 1358.344 409.453 1358.881 409.624 1358.709 C 409.796 1358.537 399.097 1353.028 385.848 1346.466 C 372.599 1339.904 361.554 1334.002 361.304 1333.349 C 361.053 1332.697 361.558 1328.379 362.424 1323.753 C 364.763 1311.271 364.683 1311.096 359.000 1316.205 "/></g>
</svg>
